<svg width="800" height="600" xmlns="http://www.w3.org/2000/svg">
  <defs>
    <linearGradient id="sochi5" x1="0%" y1="0%" x2="100%" y2="100%">
      <stop offset="0%" style="stop-color:#00639A"/>
      <stop offset="50%" style="stop-color:#89B6CD"/>
      <stop offset="100%" style="stop-color:#00639A"/>
    </linearGradient>
  </defs>
  <rect width="100%" height="100%" fill="url(#sochi5)"/>
  <!-- Горы -->
  <polygon points="0,400 200,200 400,400" fill="#004165" opacity="0.4"/>
  <polygon points="300,400 500,150 700,400" fill="#004165" opacity="0.3"/>
  <polygon points="500,400 700,250 900,400" fill="#004165" opacity="0.4"/>
  <!-- Пентхаус -->
  <rect x="250" y="220" width="300" height="200" fill="white" rx="10"/>
  <!-- Панорамные окна -->
  <rect x="270" y="240" width="260" height="120" fill="#89B6CD" rx="5"/>
  <line x1="360" y1="240" x2="360" y2="360" stroke="white" stroke-width="3"/>
  <line x1="440" y1="240" x2="440" y2="360" stroke="white" stroke-width="3"/>
  <!-- Терраса -->
  <rect x="250" y="380" width="300" height="40" fill="#f0f4f8" rx="5"/>
  <circle cx="300" cy="400" r="10" fill="#00639A" opacity="0.5"/>
  <circle cx="350" cy="400" r="10" fill="#00639A" opacity="0.5"/>
  <circle cx="500" cy="400" r="10" fill="#00639A" opacity="0.5"/>
  <!-- Бассейн на крыше -->
  <ellipse cx="400" cy="180" rx="80" ry="30" fill="#00639A" opacity="0.6"/>
  <!-- Море -->
  <rect x="0" y="480" width="800" height="120" fill="#00639A" opacity="0.5"/>
  <text x="400" y="550" font-family="Arial" font-size="18" fill="white" text-anchor="middle" font-weight="bold">Пентхаус в Сочи</text>
</svg>