<svg width="800" height="600" xmlns="http://www.w3.org/2000/svg">
  <defs>
    <linearGradient id="spb3" x1="0%" y1="0%" x2="100%" y2="100%">
      <stop offset="0%" style="stop-color:#89B6CD"/>
      <stop offset="100%" style="stop-color:#00639A"/>
    </linearGradient>
  </defs>
  <rect width="100%" height="100%" fill="url(#spb3)"/>
  <!-- Река -->
  <ellipse cx="400" cy="550" rx="600" ry="80" fill="#00639A" opacity="0.4"/>
  <!-- Историческое здание -->
  <rect x="200" y="200" width="400" height="280" fill="#f5f0e6" rx="5"/>
  <!-- Колонны -->
  <rect x="230" y="220" width="20" height="200" fill="white"/>
  <rect x="280" y="220" width="20" height="200" fill="white"/>
  <rect x="500" y="220" width="20" height="200" fill="white"/>
  <rect x="550" y="220" width="20" height="200" fill="white"/>
  <!-- Окна -->
  <rect x="320" y="240" width="50" height="60" fill="#89B6CD" rx="25 25 0 0"/>
  <rect x="390" y="240" width="50" height="60" fill="#89B6CD" rx="25 25 0 0"/>
  <rect x="460" y="240" width="50" height="60" fill="#00639A" rx="25 25 0 0"/>
  <rect x="320" y="320" width="50" height="60" fill="#89B6CD" rx="25 25 0 0"/>
  <rect x="390" y="320" width="50" height="60" fill="#89B6CD" rx="25 25 0 0"/>
  <rect x="460" y="320" width="50" height="60" fill="#89B6CD" rx="25 25 0 0"/>
  <!-- Крыша -->
  <polygon points="200,200 400,120 600,200" fill="#00639A" opacity="0.8"/>
  <text x="400" y="550" font-family="Arial" font-size="18" fill="white" text-anchor="middle" font-weight="bold">Апартаменты на Невском</text>
</svg>