<svg width="800" height="600" xmlns="http://www.w3.org/2000/svg">
  <defs>
    <linearGradient id="kazan4" x1="0%" y1="0%" x2="0%" y2="100%">
      <stop offset="0%" style="stop-color:#89B6CD"/>
      <stop offset="100%" style="stop-color:#00639A"/>
    </linearGradient>
  </defs>
  <rect width="100%" height="100%" fill="url(#kazan4)"/>
  <!-- Мечеть на фоне -->
  <ellipse cx="650" cy="280" rx="80" ry="120" fill="white" opacity="0.3"/>
  <polygon points="650,160 620,280 680,280" fill="white" opacity="0.3"/>
  <!-- Простое здание -->
  <rect x="250" y="250" width="280" height="220" fill="white" rx="5"/>
  <!-- Окна -->
  <rect x="280" y="280" width="55" height="45" fill="#89B6CD" rx="3"/>
  <rect x="355" y="280" width="55" height="45" fill="#00639A" rx="3"/>
  <rect x="430" y="280" width="55" height="45" fill="#89B6CD" rx="3"/>
  <rect x="280" y="345" width="55" height="45" fill="#89B6CD" rx="3"/>
  <rect x="355" y="345" width="55" height="45" fill="#89B6CD" rx="3"/>
  <rect x="430" y="345" width="55" height="45" fill="#89B6CD" rx="3"/>
  <!-- Дверь -->
  <rect x="355" y="410" width="55" height="60" fill="#00639A" rx="3"/>
  <!-- Земля -->
  <rect x="0" y="470" width="800" height="130" fill="#228B22" opacity="0.3"/>
  <text x="400" y="550" font-family="Arial" font-size="18" fill="white" text-anchor="middle" font-weight="bold">Студия в Казани</text>
</svg>